<svg width="852" height="558" viewBox="0 0 852 558" fill="none" xmlns="http://www.w3.org/2000/svg">
<rect width="852" height="558" fill="#1E1E1E"/>
<g id="undraw_educator_re_ju47 1" clip-path="url(#clip0_0_1)">
<path id="Vector" d="M785.204 269.129H95.1093C85.8593 269.129 78.3339 261.604 78.3339 252.353V16.7754C78.3339 7.52539 85.8593 0 95.1093 0H785.204C794.454 0 801.979 7.52539 801.979 16.7754V252.353C801.979 261.604 794.454 269.129 785.204 269.129ZM80.3339 260.292C72.1869 260.292 80.3339 8.62842 80.3339 16.7754L80.3339 260.292C80.3339 268.439 86.9623 267.129 95.1093 267.129H785.204C793.351 267.129 799.979 260.5 799.979 252.353L801.979 142.5L799.979 16.7754C799.979 8.62842 810.126 252.353 801.979 252.353L793.142 267.129H440.157L257 269.129H160.5L87.1708 267.129L80.3339 260.292Z" fill="#F2F2F2"/>
<path id="uuid-dac6dc9f-03bc-4283-a90c-97bcdcbf45dc" d="M851.034 550.557H0V552.24H851.034V550.557Z" fill="#E6E6E6"/>
<path id="uuid-2f9646f7-bb94-4523-8d2e-fd8f0877664c" d="M851.034 464.557H0V466.24H851.034V464.557Z" fill="#E6E6E6"/>
<g id="Group">
<path id="uuid-bb35f39c-94aa-41c4-b5d9-34ca9a9e88f1-172" d="M387.84 277.792C388.451 285.472 392.909 291.382 397.797 290.993C402.684 290.603 406.15 284.062 405.537 276.379C405.335 273.307 404.399 270.328 402.81 267.691L399.809 235.184L384.585 236.917L389.159 268.779C388.006 271.635 387.553 274.726 387.84 277.792Z" fill="#FFB6B6"/>
<path id="Vector_2" d="M369.653 126.133C369.653 126.133 383.884 118.599 391.101 129.858C398.317 141.116 403.298 262.879 403.298 262.879L383.296 265.014L379.505 179.212L369.653 126.133Z" fill="#E6E6E6"/>
<g id="Group_2">
<path id="Vector_3" d="M340.114 458.204L351.701 458.203L357.213 413.509L340.112 413.51L340.114 458.204Z" fill="#FFB6B6"/>
<path id="Vector_4" d="M379.814 457.941C380.174 458.549 380.365 460.51 380.365 461.217C380.365 463.389 378.604 465.15 376.432 465.15H340.547C339.066 465.15 337.864 463.949 337.864 462.467V460.973C337.864 460.973 336.089 456.483 339.744 450.948C339.744 450.948 344.286 455.282 351.074 448.494L353.075 444.868L367.564 455.464L375.595 456.453C377.352 456.669 378.91 456.419 379.814 457.941Z" fill="#2F2E41"/>
</g>
<g id="Group_3">
<path id="Vector_5" d="M407.168 456.286L418.395 453.417L412.674 408.749L396.104 412.983L407.168 456.286Z" fill="#FFB6B6"/>
<path id="Vector_6" d="M445.568 446.205C446.068 446.705 446.738 448.558 446.913 449.243C447.45 451.347 446.18 453.489 444.076 454.026L409.307 462.908C407.872 463.275 406.411 462.408 406.044 460.973L405.674 459.525C405.674 459.525 402.843 455.614 405.014 449.347C405.014 449.347 410.488 452.421 415.384 444.165L416.426 440.157L433.086 446.837L441.112 445.807C442.868 445.582 444.316 444.954 445.568 446.205Z" fill="#2F2E41"/>
</g>
<path id="Vector_7" d="M330.527 116.525L329.978 112.538L336.508 96.5902L354.449 94.5967L358.323 117.428L330.527 116.525Z" fill="#FFB6B6"/>
<path id="Vector_8" opacity="0.1" d="M330.527 116.525L329.978 112.538L336.508 96.5902L354.449 94.5967L358.323 117.428L330.527 116.525Z" fill="black"/>
<path id="Vector_9" d="M309.596 229.158L301.622 251.086L307.602 263.047L337.505 436.481H357.385L353.453 282.982L399.303 436.481H418.979L403.157 332.82L391.329 237.132L384.155 232.7L349.466 213.21L309.596 229.158Z" fill="#2F2E41"/>
<path id="Vector_10" d="M360.43 244.109L348.469 246.102L332.521 208.226H368.404L360.43 244.109Z" fill="#E6E6E6"/>
<path id="Vector_11" d="M384.352 234.141L360.43 244.109L352.456 226.167L348.469 246.102L306.605 232.626L312.586 208.226L306.605 128.486L327.717 114.412L330.527 112.538L356.443 114.532L358.715 115.768L374.384 124.499L378.371 190.285L384.352 234.141Z" fill="#2F2E41"/>
<path id="Vector_12" d="M358.715 115.768L347.472 163.372L327.717 114.412L330.527 112.538L356.443 114.532L358.715 115.768Z" fill="#E6E6E6"/>
<path id="Vector_13" d="M339.498 112.538L335.511 119.405L339.498 121.694L337.505 163.496L345.479 174.337L353.453 158.315L347.472 121.694L349.466 112.538H339.498Z" fill="#2F2E41"/>
<path id="Vector_14" d="M345.479 108.551C355.938 108.551 364.417 100.072 364.417 89.613C364.417 79.1537 355.938 70.6748 345.479 70.6748C335.019 70.6748 326.54 79.1537 326.54 89.613C326.54 100.072 335.019 108.551 345.479 108.551Z" fill="#FFB6B6"/>
<path id="Vector_15" d="M333.376 91.2742L337.468 93.0601L339.254 82.345C339.254 82.345 346.397 78.7734 351.754 80.5592C357.112 82.345 366.041 80.5592 366.041 80.5592C366.041 80.5592 366.041 62.7008 353.54 62.7008C341.039 62.7008 328.539 64.4866 328.539 69.8442C328.539 75.2017 323.181 80.5592 323.181 80.5592C323.181 80.5592 316.038 91.2742 323.181 98.4176C330.324 105.561 333.896 105.561 333.896 105.561L333.376 91.2742Z" fill="#2F2E41"/>
<path id="uuid-97233535-ec91-4408-928f-bf1e5273ca3e-173" d="M296.629 277.232C296.421 284.934 300.227 291.283 305.128 291.415C310.029 291.546 314.169 285.41 314.376 277.706C314.501 274.629 313.887 271.568 312.586 268.777L313.054 236.135L297.731 236.242L298.897 268.41C297.447 271.127 296.669 274.153 296.629 277.232Z" fill="#FFB6B6"/>
<path id="Vector_16" d="M315.586 124.462C315.586 124.462 302.628 120.475 296.648 132.436C290.667 144.397 298.641 266 298.641 266H318.757L313.418 180.28L315.586 124.462Z" fill="#E6E6E6"/>
</g>
<g id="Group_4">
<path id="Vector_17" d="M812.657 351.008L764.336 336.216C763.267 335.889 762.145 335.769 761.031 335.864L516.13 356.707C512.638 357.004 511.76 361.714 514.911 363.248L522.755 367.07H522.546V550.022H529.938V370.57L554.524 382.547C556.405 383.464 558.504 383.838 560.586 383.627L563.202 383.363V550.022H570.594V382.617L760.014 363.483V550.022H767.406V362.737L798.822 359.563V550.022H806.214V358.817L811.945 358.238C815.969 357.831 816.524 352.192 812.657 351.008Z" fill="#3F3D56"/>
<path id="Vector_18" d="M587.226 355.982C591.846 355.982 660.222 347.666 660.222 347.666L670.386 361.526L599.238 375.386L587.226 355.982Z" fill="white"/>
<g id="Group_5">
<path id="Vector_19" d="M662.269 542.917L650.39 542.895L644.818 497.064L662.35 497.096L662.269 542.917Z" fill="#A0616A"/>
<path id="Vector_20" d="M621.57 542.577C621.199 543.2 621 545.21 620.999 545.934C620.995 548.161 622.797 549.969 625.024 549.973L661.813 550.036C663.332 550.039 664.566 548.81 664.568 547.29L664.571 545.759C664.571 545.759 666.399 541.159 662.661 535.478C662.661 535.478 657.997 539.913 651.05 532.942L649.005 529.221L634.132 540.059L625.897 541.059C624.095 541.277 622.499 541.018 621.57 542.577Z" fill="#2F2E41"/>
</g>
<g id="Group_6">
<path id="Vector_21" d="M726.027 521.605L716.655 528.674L684.925 495.887L698.759 485.453L726.027 521.605Z" fill="#A0616A"/>
<path id="Vector_22" d="M693.757 545.615C693.836 546.327 694.878 548.029 695.31 548.601C696.635 550.357 699.133 550.707 700.89 549.382L729.915 527.487C731.113 526.583 731.352 524.878 730.448 523.68L729.536 522.471C729.536 522.471 728.232 517.756 721.899 515.51C721.899 515.51 720.869 521.786 711.238 520.438L707.407 518.726L702.153 536.137L696.261 541.837C694.972 543.084 693.559 543.832 693.757 545.615Z" fill="#2F2E41"/>
</g>
<path id="Vector_23" d="M701.2 284.74C701.2 295.695 692.319 304.575 681.365 304.575C670.41 304.575 661.529 295.695 661.529 284.74C661.529 273.785 670.41 264.904 681.365 264.904C692.319 264.904 701.2 273.785 701.2 284.74Z" fill="#A0616A"/>
<path id="Vector_24" d="M699.331 399.107C699.331 399.107 626.299 394.973 622.166 403.241C618.032 411.508 644.514 525.074 644.514 525.074L668.14 520.122L656.614 440.445C656.614 440.445 717.558 456.586 725.826 437.294C734.093 418.003 731.713 410.819 731.713 410.819L699.331 399.107Z" fill="#2F2E41"/>
<path id="Vector_25" d="M718.043 385.229C718.043 385.229 646.519 400.562 644.719 409.628C642.92 418.695 698.501 521.21 698.501 521.21L719.976 510.184L687.783 436.395C687.783 436.395 750.825 435.838 753.695 415.047C756.565 394.256 752.37 387.958 752.37 387.958L718.043 385.229Z" fill="#2F2E41"/>
<path id="Vector_26" d="M726.202 307.472H691.839L668.327 346.055C668.327 346.055 662.815 370.989 668.327 373.68C673.839 376.37 673.839 405.308 673.839 405.308L731.713 410.819C731.713 410.819 739.981 324.008 737.225 315.74C734.469 307.472 726.202 307.472 726.202 307.472Z" fill="#6C63FF"/>
<path id="Vector_27" d="M671.772 332.965L668.327 373.679L629.58 357.235L620.332 352.584C618.521 350.222 616.17 348.328 613.477 347.061C606.78 343.797 599.669 344.606 597.593 348.866C595.516 353.127 599.26 359.226 605.956 362.488C608.614 363.829 611.555 364.513 614.532 364.484L641.59 379.852L641.622 379.792L641.742 380.006L684.174 397.729L693.937 344.28L671.772 332.965Z" fill="#A0616A"/>
<path id="Vector_28" d="M667.638 287.492C667.638 287.492 646.969 290.248 655.237 272.334C655.237 272.334 653.976 262.624 660.118 261.967C666.26 261.311 674.528 250.287 674.528 250.287C674.528 250.287 693.483 240.641 703.297 250.287C713.111 259.933 742.048 316.429 742.048 316.429L722.757 337.098C722.757 337.098 711.159 306.61 697.666 310.141C684.174 313.673 671.772 324.203 671.772 324.203C671.772 324.203 658.079 317.351 664.237 311.378C670.394 305.405 667.638 287.492 667.638 287.492Z" fill="#2F2E41"/>
<path id="Vector_29" d="M695.197 317.807C695.197 317.807 685.552 305.405 678.662 315.051C671.772 324.697 666.26 337.098 666.26 337.098L693.819 346.744L695.197 317.807Z" fill="#6C63FF"/>
<path id="Vector_30" d="M799.836 547.279L767.817 445.509L767.821 445.508H767.895L767.766 445.342L767.763 445.339L765.483 438.09L765.484 438.089C768.958 435.095 771.323 430.817 771.795 425.892L757.158 345.393C758.166 334.823 750.062 325.583 739.445 325.204L706.422 325.121C697.034 324.788 688.903 331.57 687.535 340.866L686.805 345.8L676.688 414.628C676.318 417.105 676.466 419.544 677.048 421.826L669.767 422.778L667.558 423.074L658.827 424.21L658.799 424.22L657.709 424.358H656.526V453.926H656.6V548.433C656.6 549.042 657.099 549.541 657.709 549.541C658.328 549.541 658.827 549.042 658.827 548.433V453.926H671.781L684.708 548.322C684.791 548.876 685.262 549.283 685.817 549.283C685.863 549.283 685.918 549.283 685.964 549.273C686.574 549.19 686.999 548.627 686.916 548.017L674.036 453.926H736.193C742.365 453.926 748.084 451.968 752.74 448.614L777.385 548.149C777.513 548.652 777.966 548.987 778.463 548.987C778.554 548.987 778.646 548.976 778.738 548.953C779.334 548.801 779.694 548.195 779.542 547.6L754.659 447.103C754.99 446.827 755.321 446.533 755.634 446.229L765.527 445.647L797.713 547.947C797.862 548.422 798.301 548.727 798.774 548.727C798.885 548.727 798.997 548.71 799.108 548.675C799.694 548.49 800.02 547.865 799.836 547.279ZM763.368 439.669C763.451 439.623 763.525 439.567 763.599 439.521L763.837 440.276L763.368 439.669Z" fill="#E6E6E6"/>
</g>
<g id="Group_7">
<g id="Group_8">
<path id="Vector_31" d="M171.565 374.775L193.114 361.071L201.875 366.355L171.565 401.183V374.775Z" fill="#FFB6B6"/>
<path id="Vector_32" d="M142.097 321.733C142.097 321.733 127.784 325.1 134.52 344.465C141.255 363.83 163.146 404.243 169.881 401.717C176.617 399.191 177.459 373.933 177.459 373.933C177.459 373.933 176.617 374.775 173.249 371.407C169.881 368.039 169.881 369.577 169.881 365.861C169.881 362.146 167.127 359.391 167.127 359.391L163.988 352.884C163.988 352.884 163.988 322.574 151.359 320.891C138.73 319.207 142.097 321.733 142.097 321.733Z" fill="#E6E6E6"/>
<path id="Vector_33" d="M208.968 365.45C214.558 359.86 216.29 352.53 212.838 349.078C209.385 345.626 202.056 347.358 196.466 352.948C190.876 358.537 189.144 365.867 192.596 369.32C196.049 372.772 203.379 371.04 208.968 365.45Z" fill="#FFB6B6"/>
</g>
<g id="Group_9">
<path id="Vector_34" d="M86.3481 433.29L101.052 457.628L186.741 452.557L163.925 423.149L86.3481 433.29Z" fill="#E6E6E6"/>
<path id="Vector_35" d="M111.952 547.12C111.453 547.12 111.018 546.751 110.949 546.243L85.3434 359.236C85.2674 358.681 85.6556 358.17 86.2104 358.094C86.765 358.014 87.2765 358.406 87.3527 358.961L112.958 545.968C113.034 546.523 112.646 547.035 112.091 547.11C112.044 547.117 111.998 547.12 111.952 547.12Z" fill="#E6E6E6"/>
<path id="Vector_36" d="M86.3481 547.358C85.788 547.358 85.334 546.903 85.334 546.343V359.135C85.334 358.575 85.788 358.121 86.3481 358.121C86.9081 358.121 87.3621 358.575 87.3621 359.135V546.343C87.3621 546.903 86.9081 547.358 86.3481 547.358Z" fill="#E6E6E6"/>
<path id="Vector_37" d="M214.882 546.613C214.451 546.613 214.051 546.336 213.915 545.903L153.324 353.319C153.156 352.785 153.453 352.215 153.987 352.047C154.521 351.879 155.09 352.176 155.258 352.71L215.849 545.294C216.017 545.829 215.721 546.398 215.186 546.566C215.085 546.598 214.983 546.613 214.882 546.613Z" fill="#E6E6E6"/>
<path id="Vector_38" d="M196.374 546.85C195.922 546.85 195.509 546.546 195.392 546.087L153.308 376.117C153.17 375.574 153.498 375.022 154.041 374.884C154.585 374.747 155.136 375.074 155.274 375.617L197.358 545.586C197.496 546.129 197.168 546.681 196.625 546.819C196.541 546.841 196.457 546.85 196.374 546.85Z" fill="#E6E6E6"/>
<path id="Vector_39" d="M86.3481 362.117L156.573 361.037L169.502 434.811H87.3622L86.3481 362.117Z" fill="#E6E6E6"/>
</g>
<g id="Group_10">
<path id="Vector_40" d="M194.266 470.597L176.568 501.755L197.117 506.279L205.684 484.118L194.266 470.597Z" fill="#FFB6B6"/>
<path id="Vector_41" d="M182.925 495.873C182.925 495.873 182.237 490.791 178.194 492.404C174.151 494.016 162.483 500.009 162.483 500.009C162.483 500.009 192.916 549.46 198.692 547.156C204.468 544.852 197.554 530.874 197.554 530.874L199.08 506.165L182.925 495.873Z" fill="#2F2E41"/>
<path id="Vector_42" d="M115.997 410.136C115.997 410.136 109.683 439.183 129.047 449.286C148.412 459.39 214.504 434.553 214.504 434.553L184.194 479.968L205.243 488.437C205.243 488.437 253.233 425.291 249.866 415.188C246.498 405.085 223.766 404.243 223.766 404.243L172.407 406.769L158.936 402.559L115.997 410.136Z" fill="#2F2E41"/>
</g>
<g id="Group_11">
<path id="Vector_43" d="M168.084 484.425L140.261 507.008L157.755 518.699L173.798 501.174L168.084 484.425Z" fill="#FFB6B6"/>
<path id="Vector_44" d="M148.322 503.842C148.322 503.842 149.531 498.858 145.178 498.889C140.826 498.92 127.777 500.256 127.777 500.256C127.777 500.256 138.13 557.391 144.348 557.347C150.565 557.303 149.212 541.767 149.212 541.767L159.624 519.307L148.322 503.842Z" fill="#2F2E41"/>
<path id="Vector_45" d="M117.181 399.629C117.181 399.629 100.73 424.387 115.09 440.844C129.451 457.301 200.05 458.217 200.05 458.217L155.292 489.489L171.816 505.037C171.816 505.037 239.494 463.683 240.034 453.047C240.573 442.411 219.706 433.355 219.706 433.355L170.949 417.019L159.934 408.196L117.181 399.629Z" fill="#2F2E41"/>
</g>
<path id="Vector_46" d="M159.443 342.284C159.443 342.284 143.446 336.391 135.869 336.391C135.145 336.391 134.429 336.475 133.714 336.627C128.864 337.654 124.402 341.821 122.263 344.095C121.43 344.987 120.95 345.585 120.95 345.585C120.95 345.585 121 345.004 121.101 343.985C121.598 338.63 123.434 321.059 126.726 309.811C127.904 305.795 129.26 302.587 130.817 301.029C134.446 297.392 136.122 293.031 136.896 289.781C137.553 286.994 137.553 285.032 137.553 285.032L131.415 282.389L130.278 274.963C130.076 275.838 129.142 277.548 126.001 280.823C125.732 281.101 125.437 281.336 125.126 281.538C120.596 284.384 111.36 279.434 106.384 276.318C108.455 269.12 112.21 262.536 119.03 261.458C135.027 258.932 135.027 249.671 145.13 259.774C145.964 260.608 146.806 261.408 147.648 262.182C150.881 268.362 152.059 276.647 152.48 282.406C152.784 286.438 152.708 289.242 152.708 289.242C152.708 289.242 156.917 314.5 163.653 319.552C170.389 324.604 159.443 342.284 159.443 342.284Z" fill="#2F2E41"/>
<path id="Vector_47" d="M128.291 301.871L116.915 318.558L142.604 325.446V301.871H128.291Z" fill="#FFB6B6"/>
<path id="Vector_48" opacity="0.1" d="M128.291 301.871L116.915 318.558L142.604 325.446V301.871H128.291Z" fill="black"/>
<path id="Vector_49" d="M144.202 317.944L119.786 307.841C119.786 307.841 86.9503 322.153 89.4761 349.938C92.0019 377.722 115.576 425.712 115.576 425.712L162.725 405.506L157.673 351.621L144.202 317.944Z" fill="#E6E6E6"/>
<path id="Vector_50" d="M133.733 309.321C145.63 309.321 155.275 299.677 155.275 287.78C155.275 275.883 145.63 266.239 133.733 266.239C121.837 266.239 112.192 275.883 112.192 287.78C112.192 299.677 121.837 309.321 133.733 309.321Z" fill="#FFB6B6"/>
<path id="Vector_51" d="M162.811 279.981C158.601 284.191 155.234 288.4 155.234 288.4L153.55 281.665C153.55 281.665 153.162 281.951 152.48 282.406C149.811 284.224 142.647 288.796 136.896 289.781C134.337 290.219 132.063 289.941 130.582 288.4C127.441 285.125 126.507 283.416 126.305 282.54L125.168 289.966L119.03 292.61C119.03 292.61 119.03 301.854 125.766 308.607C126.094 308.935 126.414 309.339 126.725 309.811C129.942 314.66 132.249 326.532 133.714 336.626C135.01 345.602 135.633 353.162 135.633 353.162C135.633 353.162 129.26 345.181 122.263 344.095C121.876 344.036 121.489 343.993 121.101 343.985C120.975 343.968 120.84 343.968 120.714 343.968C113.137 343.968 97.1397 349.862 97.1397 349.862C97.1397 349.862 86.1945 332.181 92.93 327.129C99.6655 322.078 103.875 296.82 103.875 296.82C103.875 296.82 103.597 286.009 106.384 276.318C108.455 269.12 112.21 262.536 119.03 261.458C135.027 258.932 135.027 249.671 145.13 259.774C145.964 260.608 146.806 261.408 147.648 262.182C157.061 270.837 166.676 276.116 162.811 279.981Z" fill="#2F2E41"/>
<path id="Vector_52" d="M68.3339 393H60.3339V551H68.3339V393Z" fill="#3F3D56"/>
<path id="Vector_53" d="M262.334 393H254.334V551H262.334V393Z" fill="#3F3D56"/>
<path id="Vector_54" d="M211.334 326H158.334V379H211.334V326Z" fill="#6C63FF"/>
<g id="Group_12">
<path id="Vector_55" d="M127.784 382.352L149.333 368.648L158.094 373.933L127.784 408.761V382.352Z" fill="#FFB6B6"/>
<path id="Vector_56" d="M98.3164 329.31C98.3164 329.31 84.0035 332.678 90.739 352.042C97.4745 371.407 119.365 411.82 126.1 409.294C132.836 406.768 133.678 381.51 133.678 381.51C133.678 381.51 132.836 382.352 129.468 378.984C126.1 375.617 126.1 377.155 126.1 373.439C126.1 369.723 123.346 366.969 123.346 366.969L120.207 360.462C120.207 360.462 120.207 330.152 107.578 328.468C94.9487 326.784 98.3164 329.31 98.3164 329.31Z" fill="#E6E6E6"/>
<path id="Vector_57" d="M165.187 373.027C170.777 367.438 172.509 360.108 169.057 356.656C165.605 353.203 158.275 354.936 152.685 360.525C147.095 366.115 145.363 373.445 148.815 376.897C152.268 380.35 159.598 378.617 165.187 373.027Z" fill="#FFB6B6"/>
</g>
<path id="Vector_58" d="M278.334 387H36.3339V405H278.334V387Z" fill="#3F3D56"/>
</g>
<path id="Vector_59" d="M524.204 243H488.464C485.631 243 483.334 245.297 483.334 248.13V262.87C483.334 265.703 485.631 268 488.464 268H524.204C527.037 268 529.334 265.703 529.334 262.87V248.13C529.334 245.297 527.037 243 524.204 243Z" fill="#3F3D56"/>
<path id="Vector_60" d="M599.204 257.74H563.464C560.631 257.74 558.334 260.037 558.334 262.87V262.87C558.334 265.703 560.631 268 563.464 268H599.204C602.037 268 604.334 265.703 604.334 262.87V262.87C604.334 260.037 602.037 257.74 599.204 257.74Z" fill="#6C63FF"/>
</g>
<defs>
<clipPath id="clip0_0_1">
<rect width="851.034" height="557.347" fill="white"/>
</clipPath>
</defs>
</svg>
